PathFileType	4	(X/Y/Z)	C:\Users\Basilio\Documents\Thesis Gigler\squatting_fais\c3dfiles\077\SLS_front_pre4\markers_experimental.trc
DataRate	CameraRate	NumFrames	NumMarkers	Units	OrigDataRate	OrigDataStartFrame	OrigNumFrames
200.000000	200.000000	4	60	mm	200.000000	0	1586
Frame#	Time	FHD			RBHD			C7			T10			CLAV			LSHO			LUUPA			LMUPA			LDUPA			LLEP			LMEP			LRAD			LUL			LRFIN			RSHO			RUPA1			RMUPA			RDUPA			RLEP			RMEP			RRAD			RUL			RUFIN			LASI			RASI			USACR			LSACR			RSACR			LTHI1			LTHI2			LTHI3			LTHI4			LLFC			LMFC			LTIB1			LTIB2			LTIB3			LTIB4			LLMAL			LHEE			LMT1			LMT2			LMT5			RTHI			RTHI2			RTHI3			RTHI4			RLFC			RMFC			RTIB1			RTIB2			RTIB3			RTIB4			RLMAL			RMMAL			RHEE			RMT1			RMT2			RMT5			LBHD			
		X1	Y1	Z1	X2	Y2	Z2	X3	Y3	Z3	X4	Y4	Z4	X5	Y5	Z5	X6	Y6	Z6	X7	Y7	Z7	X8	Y8	Z8	X9	Y9	Z9	X10	Y10	Z10	X11	Y11	Z11	X12	Y12	Z12	X13	Y13	Z13	X14	Y14	Z14	X15	Y15	Z15	X16	Y16	Z16	X17	Y17	Z17	X18	Y18	Z18	X19	Y19	Z19	X20	Y20	Z20	X21	Y21	Z21	X22	Y22	Z22	X23	Y23	Z23	X24	Y24	Z24	X25	Y25	Z25	X26	Y26	Z26	X27	Y27	Z27	X28	Y28	Z28	X29	Y29	Z29	X30	Y30	Z30	X31	Y31	Z31	X32	Y32	Z32	X33	Y33	Z33	X34	Y34	Z34	X35	Y35	Z35	X36	Y36	Z36	X37	Y37	Z37	X38	Y38	Z38	X39	Y39	Z39	X40	Y40	Z40	X41	Y41	Z41	X42	Y42	Z42	X43	Y43	Z43	X44	Y44	Z44	X45	Y45	Z45	X46	Y46	Z46	X47	Y47	Z47	X48	Y48	Z48	X49	Y49	Z49	X50	Y50	Z50	X51	Y51	Z51	X52	Y52	Z52	X53	Y53	Z53	X54	Y54	Z54	X55	Y55	Z55	X56	Y56	Z56	X57	Y57	Z57	X58	Y58	Z58	X59	Y59	Z59	X60	Y60	Z60	

1	0	22.10081863403321	1610.449462890625	-802.7021484375002	-148.4154052734375	1684.660522460938	-733.1846923828126	-306.7553405761719	1634.125610351563	-817.215515136719	-475.5189819335939	1312.987182617188	-849.7751464843752	-194.4178314208985	1503.56298828125	-840.8330688476565	-265.7120056152344	1592.267700195313	-1020.5458984375	-398.6116027832032	1426.274536132813	-1134.15380859375	-369.2304077148438	1387.420654296875	-1138.580810546875	-426.003387451172	1365.703491210938	-1146.857666015625	-444.2091369628907	1304.8359375	-1162.5595703125	-472.9673461914064	1287.232055664063	-1091.083374023438	-355.6018371582032	1006.83642578125	-1164.065673828125	-426.6788635253907	1004.064880371094	-1201.24658203125	-343.6892395019532	924.6279296875002	-1209.68994140625	-226.6670227050782	1526.462768554688	-643.8640136718751	-346.7628784179688	1348.267578125	-540.8961181640626	-318.2807312011719	1310.977172851563	-550.6871337890626	-369.7958068847657	1282.756469726563	-535.3720703125001	-385.0974121093751	1216.1298828125	-530.5440673828126	-426.8467712402345	1208.860717773438	-600.8255004882814	-299.3344421386719	931.3999633789065	-580.4928588867189	-358.0954895019532	920.2388305664065	-530.7266235351564	-276.3662719726563	848.9627685546877	-547.9713745117189	-339.0651855468751	1078.892211914063	-1013.47900390625	-323.2919006347657	1081.21435546875	-729.2994995117189	-515.2646484375001	1190.223388671875	-860.1455078125002	-528.4923095703126	1164.461059570313	-890.404968261719	-528.4059448242189	1158.140014648438	-835.0109863281252	-382.6984252929688	873.1728515625002	-1081.324340820313	-345.7146911621094	798.6694335937502	-1084.019409179688	-298.1489257812501	806.1925048828127	-1077.346557617188	-369.2244262695313	743.7068481445314	-1072.34375	-323.8634033203126	599.6424560546876	-1058.66357421875	-314.6746520996094	568.5390014648439	-928.6479492187502	-287.3523864746094	374.7150268554688	-1007.415893554688	-318.2628173828126	335.4003906250001	-1082.975952148438	-288.6108398437501	329.8594970703126	-1048.126708984375	-293.3223876953126	250.3687591552735	-1023.918579101563	-352.2113952636719	132.1533660888672	-1077.400634765625	-408.1787414550782	96.01942443847659	-1026.9306640625	-199.2402954101563	62.16211318969728	-1003.469665527344	-192.2979583740235	64.25452423095705	-1045.474609375	-321.2808532714844	139.8302154541016	-992.8928222656252	-399.8798828125001	752.9605712890626	-694.5911254882814	-360.6553344726563	698.2713012695314	-695.3185424804689	-326.3870239257813	701.6312866210939	-698.6433105468751	-383.7220764160157	622.5173339843751	-714.6077880859376	-371.4493408203126	554.9288330078126	-717.7023315429689	-348.1519470214844	547.7730102539064	-847.6156005859377	-317.5541076660157	419.4159240722657	-746.9317626953126	-377.4424133300782	336.8942565917969	-714.5104370117189	-335.5305786132813	334.2862854003907	-737.1612548828126	-333.8797912597657	292.3402404785157	-780.1763305664065	-395.089569091797	111.5524368286133	-743.4684448242189	-371.4378662109376	124.4343185424805	-834.5438232421877	-459.4128723144532	88.53231048583986	-799.2593994140627	-236.749984741211	62.43354415893556	-794.9479980468752	-241.4228210449219	60.18116760253908	-758.0357055664064	-259.2413635253907	41.30724716186524	-709.9296264648439	nan	nan	nan	
2	0.005	22.09012413024903	1610.251953125	-802.2294921875002	-148.5576324462891	1684.992553710938	-732.6233520507814	-306.8611450195313	1634.39404296875	-816.7481079101565	-475.4256896972657	1313.104125976563	-849.5469970703127	-194.4644165039063	1503.896606445313	-840.6165771484377	-265.7745056152344	1592.6708984375	-1020.12548828125	-398.4714355468751	1426.5556640625	-1133.928955078125	-368.9802856445313	1387.759521484375	-1138.248168945313	-425.7061767578126	1366.005981445313	-1146.626098632813	-443.9327392578126	1305.077270507813	-1162.3291015625	-472.7408447265626	1287.486450195313	-1090.828979492188	-354.9895935058594	1007.133605957031	-1163.58056640625	-425.9299926757814	1004.355895996094	-1200.992065429688	-342.6955261230469	925.0054931640627	-1209.104125976563	-226.6567993164063	1526.73046875	-643.6237182617189	-346.5287475585938	1348.295288085938	-540.7197875976564	-317.8922424316407	1311.099853515625	-550.4683227539064	-369.3869934082032	1282.707885742188	-535.2045898437501	-384.5950927734376	1216.086547851563	-530.3958129882814	-426.302215576172	1208.74609375	-600.6538085937501	-297.5230712890626	931.7614746093752	-580.8213500976564	-356.4098510742188	920.2679443359377	-530.8873901367189	-274.3621520996094	849.3582763671877	-547.8904418945314	-338.7818298339844	1079.45263671875	-1013.387817382813	-323.1450805664063	1081.214477539063	-729.1871948242189	-515.0811767578126	1190.416137695313	-860.0120239257815	-528.2817382812501	1164.685913085938	-890.3349609375002	-528.2498168945314	1158.277709960938	-834.965026855469	-382.2307128906251	873.6494750976565	-1081.458251953125	-345.1423645019532	799.1836547851565	-1084.063110351563	-297.7311096191407	806.6472167968752	-1077.374633789063	-367.4520874023438	743.7498779296876	-1072.27392578125	-323.3327941894532	600.1352539062501	-1058.71728515625	-314.3087768554688	568.9889526367189	-928.7281494140627	-288.1856689453126	374.3096313476563	-1007.757690429688	-318.0527343750001	335.7644042968751	-1083.049560546875	-288.4787597656251	330.2436218261719	-1048.159057617188	-293.4195556640626	250.8391265869141	-1023.938171386719	-352.3128967285157	132.5514526367188	-1077.443359375	-408.538299560547	96.59078216552737	-1027.20751953125	-199.8359069824219	62.30310058593751	-1002.908630371094	-192.6392974853516	64.23057556152345	-1044.927612304688	-321.6999816894532	140.2613983154297	-992.909362792969	-399.9209899902345	752.9329833984376	-694.7506103515626	-360.6902160644532	698.2432861328126	-695.4222412109376	-326.4322509765626	701.6163330078126	-698.6907348632814	-383.7847900390626	622.5172119140626	-714.7432250976564	-371.5059509277344	554.9714965820314	-717.7772216796876	-348.1071777343751	547.7357788085939	-847.6558227539065	-317.1685791015626	419.0713806152345	-746.8109130859376	-377.4387817382813	336.9273071289063	-714.5571899414064	-335.5235595703126	334.2967834472657	-737.1796264648439	-333.8079528808594	292.3632202148438	-780.1207275390627	-395.1603088378907	111.5745697021485	-743.4970703125001	-371.4784851074219	124.411849975586	-834.565368652344	-459.4085693359376	88.54119873046876	-799.286071777344	-236.6932525634766	62.47075271606447	-794.9651489257815	-241.4151306152344	60.16983032226564	-758.0385131835939	-259.2528686523438	41.3442611694336	-709.9350585937501	nan	nan	nan	
3	0.01	21.98985671997071	1610.585083007813	-801.7888793945315	-148.6521453857422	1685.317626953125	-732.2670288085939	-306.9595947265626	1634.642822265625	-816.3081054687502	-475.2434692382814	1313.24267578125	-849.3538208007815	-194.5285797119141	1504.227661132813	-840.2737426757815	-265.9222106933594	1593.062866210938	-1019.760681152344	-398.2189941406251	1426.852661132813	-1133.73681640625	-368.7580871582032	1388.036987304688	-1138.002807617188	-425.4331970214845	1366.207641601563	-1146.415405273438	-443.6294250488282	1305.318237304688	-1162.118896484375	-472.537567138672	1287.687866210938	-1090.614501953125	-354.3691406250001	1007.538696289063	-1163.233764648438	-425.066131591797	1004.589904785156	-1200.73974609375	-341.8739318847657	925.2924804687502	-1208.569091796875	-226.6763458251954	1527.031494140625	-643.4192504882814	-346.2327880859376	1348.31494140625	-540.5535888671876	-317.5269470214844	1311.179443359375	-550.3638305664064	-368.9589843750001	1282.716064453125	-535.0683593750001	-384.0553588867189	1216.079833984375	-530.2634887695314	-425.7035522460939	1208.664428710938	-600.5201416015626	-295.8555908203126	932.0458984375002	-580.4553222656251	-354.7074279785157	920.3601074218752	-531.0680541992189	-272.2817687988282	849.770690917969	-547.9967651367189	-338.4053039550782	1079.894409179688	-1013.345275878906	-323.0016479492188	1081.241088867188	-729.0705566406251	-514.8718872070314	1190.60888671875	-859.9008789062502	-528.0822143554689	1164.94091796875	-890.2727050781252	-528.1007080078126	1158.400512695313	-834.9714355468752	-383.3710327148438	874.3686523437502	-1082.110717773438	-344.5714416503907	799.6814575195315	-1084.116088867188	-297.2135009765626	807.1177368164065	-1077.345947265625	-366.9865417480469	744.0936279296876	-1072.40673828125	-322.9995422363282	600.4521484375001	-1058.825073242188	-313.9471130371094	569.3493041992189	-928.8543090820315	-287.2544860839844	375.3414916992188	-1007.4033203125	-317.9727478027344	336.1640014648438	-1083.075805664063	-288.4788513183594	330.4990844726563	-1048.068359375	-293.5899353027344	251.1636352539063	-1023.9697265625	-352.4400329589844	132.9640808105469	-1077.504150390625	-408.9871520996095	97.11967468261722	-1027.40478515625	-200.4568023681641	62.3951873779297	-1002.3759765625	-193.0536651611329	64.2862014770508	-1044.395874023438	-322.1069030761719	140.7090606689453	-992.8549804687502	-399.8883056640626	752.9368286132814	-694.9176635742189	-360.7218627929688	698.2116699218751	-695.5115356445314	-326.4536743164063	701.5792236328126	-698.7653198242189	-383.8904113769532	622.4975585937501	-714.8898315429689	-371.5226440429688	554.9747314453126	-717.8986206054689	-347.9913635253907	547.7421264648439	-847.7364501953127	-317.1770629882813	419.0868225097657	-746.8202514648439	-377.4858703613282	336.9714660644532	-714.5878906250001	-335.5700378417969	334.3356628417969	-737.1770019531251	-333.8668212890626	292.3734130859376	-780.141296386719	-395.1617126464845	111.6128158569336	-743.4996337890626	-371.4690246582032	124.3960266113282	-834.5772094726565	-459.404510498047	88.56332397460939	-799.2856445312502	-236.7385559082032	62.37648010253908	-794.9664306640627	-241.4096679687501	60.15446090698244	-758.0478515625001	-259.2040405273438	41.36977005004884	-709.9481811523439	nan	nan	nan	
4	0.015	21.73774528503418	1610.883056640625	-801.4670410156252	-148.735595703125	1685.7099609375	-731.9585571289064	-307.0586853027344	1634.916259765625	-815.9319458007815	-475.0775756835939	1313.3837890625	-849.1879882812502	-194.5255584716797	1504.551147460938	-839.9849243164065	-266.0594482421876	1593.43994140625	-1019.363037109375	-398.0258789062501	1427.131469726563	-1133.493286132813	-368.4765319824219	1388.367065429688	-1137.771728515625	-425.174774169922	1366.455810546875	-1146.264770507813	-443.3093566894532	1305.56884765625	-1161.962890625	-472.3141174316407	1287.926635742188	-1090.466674804688	-353.6469726562501	1007.87890625	-1162.732543945313	-424.3241271972657	1004.870544433594	-1200.501831054688	-341.1114501953126	925.629821777344	-1208.081420898438	-226.7128295898438	1527.352172851563	-643.1749267578126	-345.9872131347657	1348.341064453125	-540.3557128906251	-317.1913452148438	1311.290649414063	-550.2550659179689	-368.6070251464844	1282.724487304688	-534.9724121093751	-383.4921875000001	1216.044189453125	-530.1565551757814	-425.219696044922	1208.570190429688	-600.3860473632814	-293.9722290039063	932.4290161132815	-580.4860229492189	-352.9893188476563	920.4395751953127	-531.3274536132814	-270.2812194824219	850.1093750000002	-547.9555053710939	-338.0502014160157	1080.287109375	-1013.321228027344	-322.8819885253907	1081.184448242188	-729.0541992187501	-514.6480102539064	1190.752807617188	-859.8650512695315	-527.8517456054689	1165.1982421875	-890.2905273437502	-527.9179077148439	1158.551391601563	-834.9957275390627	-382.8219299316407	874.7200317382815	-1082.181884765625	-342.8455505371094	799.3535156250002	-1083.581909179688	-296.6534118652344	807.4663696289065	-1077.204956054688	-366.5283813476563	744.4044799804689	-1072.5576171875	-322.6763916015626	600.7608642578126	-1058.919189453125	-313.6276855468751	569.6890869140626	-928.953063964844	-287.2319335937501	375.6345825195313	-1007.455139160156	-317.9559631347657	336.4908142089844	-1083.09130859375	-288.4227905273438	330.7718811035157	-1048.046630859375	-293.7665405273438	251.4663238525391	-1023.86181640625	-352.6199951171876	133.2931060791016	-1077.5498046875	-409.4772033691407	97.67750549316409	-1027.698120117188	-201.1001281738282	62.41960525512697	-1001.80810546875	-193.6154479980469	64.29923248291017	-1043.756958007813	-322.5406799316407	141.0794067382813	-992.8870849609377	-399.916717529297	752.9036865234376	-695.0923461914064	-360.7542114257813	698.2102661132814	-695.5233154296876	-326.4764404296876	701.5080566406251	-698.7713012695314	-383.8820190429688	622.5028076171876	-714.9857177734376	-371.5373229980469	554.9869384765626	-717.9661254882814	-347.9644165039063	547.7633056640626	-847.9025878906252	-317.1814880371094	419.1358337402345	-746.8384399414064	-377.5311584472657	337.0075988769532	-714.6568603515626	-335.5888061523438	334.3294067382813	-737.2072753906251	-333.8375549316407	292.4151306152344	-780.1691894531252	-395.2047729492189	111.6402435302735	-743.5278320312501	-371.4405212402344	124.3902435302735	-834.616882324219	-459.436004638672	88.60842895507814	-799.2475585937502	-236.7297668457032	62.38765335083009	-794.9653930664065	-241.4148712158204	60.17119598388673	-758.0348510742189	-259.2454223632813	41.41219329833985	-709.9067382812501	nan	nan	nan	
